<svg id="icons" preserveAspectRatio="none" xmlns="http://www.w3.org/2000/svg">
  <symbol id="add" viewBox="0 0 31.4 31.4">
        <path d="M1.1,16.8c-0.6,0-1.1-0.5-1.1-1.1s0.5-1.1,1.1-1.1h13.5V1.1c0-0.6,0.5-1.1,1.1-1.1c0.6,0,1.1,0.5,1.1,1.1v13.5
	h13.5c0.6,0,1.1,0.5,1.1,1.1s-0.5,1.1-1.1,1.1H16.8v13.5c0,0.6-0.5,1.1-1.1,1.1c-0.6,0-1.1-0.5-1.1-1.1V16.8H1.1z"/>
    </symbol>

  <symbol id="save" viewBox="0 0 30 30">
        <path d="M24.2,0.8h-2.6v7.9c0,0.7-0.6,1.3-1.3,1.3H8.5c-0.7,0-1.3-0.6-1.3-1.3V0.8H3.2c-1.5,0-2.6,1.2-2.6,2.6V27
		c0,1.5,1.2,2.6,2.6,2.6h23.6c1.5,0,2.6-1.2,2.6-2.6V6L24.2,0.8z M24.2,27H5.8v-7.9c0-1.5,1.2-2.6,2.6-2.6h13.1
		c1.5,0,2.6,1.2,2.6,2.6V27z"/>
    </symbol>

  <symbol id="edit" viewBox="0 0 300 300">
        <path d="M260,20.3l29.2,29.2L164.5,194.9L114.6,145L260,20.3z M63.9,216.4l29.2,29.2l64.6-44.6l-49.2-49.2L63.9,216.4z
	M64.5,224.7l20.4,20l-27,35.1c-16.3-0.4-32.2,4.7-45.3,14.4c12-12.3,19.1-28.4,20.2-45.5L64.5,224.7z M54.4,263.2
	c0-3.5-2.8-6.3-6.3-6.3c-3.5,0-6.3,2.8-6.3,6.3s2.8,6.3,6.3,6.3C51.6,269.5,54.4,266.7,54.4,263.2z M267.9,14.7
	C267.9,14.7,267.9,14.7,267.9,14.7c-1-0.1-2-0.1-2.9,0l27,26.9C292.8,27.5,282,15.5,267.9,14.7z"/>
    </symbol>

  <symbol id="discard" viewBox="0 0 47.971 47.971">
        <path d="M28.228,23.986L47.092,5.122c1.172-1.171,1.172-3.071,0-4.242c-1.172-1.172-3.07-1.172-4.242,0L23.986,19.744L5.121,0.88
		c-1.172-1.172-3.07-1.172-4.242,0c-1.172,1.171-1.172,3.071,0,4.242l18.865,18.864L0.879,42.85c-1.172,1.171-1.172,3.071,0,4.242
		C1.465,47.677,2.233,47.97,3,47.97s1.535-0.293,2.121-0.879l18.865-18.864L42.85,47.091c0.586,0.586,1.354,0.879,2.121,0.879
		s1.535-0.293,2.121-0.879c1.172-1.171,1.172-3.071,0-4.242L28.228,23.986z"/>
    </symbol>

  <symbol id="kebab" viewBox="0 0 128 512">
        <path d="M64 208c26.5 0 48 21.5 48 48s-21.5 48-48 48-48-21.5-48-48 21.5-48 48-48zM16 104c0 26.5 21.5 48 48 48s48-21.5 48-48-21.5-48-48-48-48 21.5-48 48zm0 304c0 26.5 21.5 48 48 48s48-21.5 48-48-21.5-48-48-48-48 21.5-48 48z"/>
    </symbol>

  <symbol id="list" viewBox="0 0 512 512">
      <path d="M32.39 224C14.73 224 0 238.33 0 256s14.73 32 32.39 32a32 32 0 0 0 0-64zm0-160C14.73 64 0 78.33 0 96s14.73 32 32.39 32a32 32 0 0 0 0-64zm0 320C14.73 384 0 398.33 0 416s14.73 32 32.39 32a32 32 0 0 0 0-64zM504 80H136a8 8 0 0 0-8 8v16a8 8 0 0 0 8 8h368a8 8 0 0 0 8-8V88a8 8 0 0 0-8-8zm0 160H136a8 8 0 0 0-8 8v16a8 8 0 0 0 8 8h368a8 8 0 0 0 8-8v-16a8 8 0 0 0-8-8zm0 160H136a8 8 0 0 0-8 8v16a8 8 0 0 0 8 8h368a8 8 0 0 0 8-8v-16a8 8 0 0 0-8-8z"/>
    </symbol>

  <symbol id="tree" viewBox="0 0 640 512">
      <path d="M513.6 202.8l-19.2-25.6-48 36 19.2 25.6 48-36zM576 192c13.3 0 25.6-4 35.8-10.9 6.8-4.6 12.7-10.5 17.3-17.3C636 153.6 640 141.3 640 128c0-13.3-4-25.6-10.9-35.8-2.3-3.4-4.9-6.6-7.8-9.5-2.9-2.9-6.1-5.5-9.5-7.8C601.6 68 589.3 64 576 64s-25.6 4-35.8 10.9c-6.8 4.6-12.7 10.5-17.3 17.3C516 102.4 512 114.7 512 128c0 35.3 28.7 64 64 64zm0-96c17.6 0 32 14.4 32 32s-14.4 32-32 32-32-14.4-32-32 14.4-32 32-32zM99.8 250.9C89.6 244 77.3 240 64 240s-25.6 4-35.8 10.9c-6.8 4.6-12.7 10.5-17.3 17.3C4 278.4 0 290.7 0 304c0 35.3 28.7 64 64 64s64-28.7 64-64c0-13.3-4-25.6-10.9-35.8-4.6-6.8-10.5-12.7-17.3-17.3zM64 336c-17.6 0-32-14.4-32-32s14.4-32 32-32 32 14.4 32 32-14.4 32-32 32zm88-16h48v-32h-48v32zm469.3 82.7c-2.9-2.9-6.1-5.5-9.5-7.8C601.6 388 589.3 384 576 384s-25.6 4-35.8 10.9c-3.3 2.2-6.3 4.7-9.1 7.5l-91.8-55.1c5.6-13.3 8.7-28 8.7-43.3 0-61.9-50.1-112-112-112-11.3 0-21.9 2.2-32.2 5.2l-39.3-84.1C278.8 101.4 288 83.9 288 64c0-13.3-4-25.6-10.9-35.8-4.6-6.8-10.5-12.7-17.3-17.3C249.6 4 237.3 0 224 0s-25.6 4-35.8 10.9c-6.8 4.6-12.7 10.5-17.3 17.3C164 38.4 160 50.7 160 64c0 35.3 28.7 64 64 64 4 0 7.9-.5 11.7-1.2l39 83.6c-30.5 20-50.7 54.4-50.7 93.6 0 61.9 50.1 112 112 112 35 0 65.8-16.4 86.4-41.5l92.4 55.4c-1.7 5.8-2.7 11.8-2.7 18.1 0 35.3 28.7 64 64 64 13.3 0 25.6-4 35.8-10.9 6.8-4.6 12.7-10.5 17.3-17.3C636 473.6 640 461.3 640 448c0-13.3-4-25.6-10.9-35.8-2.3-3.4-5-6.6-7.8-9.5zM224 96c-17.6 0-32-14.4-32-32s14.4-32 32-32 32 14.4 32 32-14.4 32-32 32zm112 288c-44.1 0-80-35.9-80-80s35.9-80 80-80 80 35.9 80 80-35.9 80-80 80zm240 96c-17.6 0-32-14.4-32-32s14.4-32 32-32 32 14.4 32 32-14.4 32-32 32z"/>
    </symbol>

  <symbol id="trash" viewBox="0 0 407 407">
    <path class="st0" d="M137.2,37c0-12.1,9.5-21,21.6-21h88.8c12.1,0,21.6,8.9,21.6,21v23h16V37c0-21-16.6-37-37.6-37h-88.8
		c-21,0-37.6,16-37.6,37v23h16V37z"/>
    <path class="st0" d="M108.6,407h189.2c18.2,0,32.4-16,32.4-36V124h-254v247C76.2,391,90.4,407,108.6,407z M254.2,162.2
		c0-4.4,3.6-8,8-8s8,3.6,8,8v189c0,4.4-3.6,8-8,8s-8-3.6-8-8V162.2z M195.2,162.2c0-4.4,3.6-8,8-8s8,3.6,8,8v189c0,4.4-3.6,8-8,8
		s-8-3.6-8-8V162.2z M136.2,162.2c0-4.4,3.6-8,8-8s8,3.6,8,8v189c0,4.4-3.6,8-8,8s-8-3.6-8-8V162.2z"/>
    <path class="st0" d="M68,108h270.4c11,0,20-9,20-20s-9-20-20-20H68c-11,0-20,9-20,20S57,108,68,108z"/>
  </symbol>

  <symbol id="cog" viewBox="0 0 52 52">
    <path d="M50.219,21h-2.797c-0.552-2.375-1.486-4.602-2.739-6.613l1.978-1.978
	c0.695-0.695,0.695-1.823,0-2.518l-4.553-4.553c-0.695-0.695-1.823-0.695-2.518,0l-1.978,1.978C35.602,6.064,33.375,5.13,31,4.578
	V1.781C31,0.797,30.203,0,29.219,0h-6.439C21.797,0,21,0.797,21,1.781v2.797c-2.375,0.552-4.602,1.486-6.613,2.739L12.41,5.339
	c-0.695-0.695-1.823-0.695-2.518,0L5.339,9.892c-0.695,0.695-0.695,1.823,0,2.518l1.978,1.978C6.064,16.398,5.13,18.625,4.578,21
	H1.781C0.797,21,0,21.797,0,22.781v6.439C0,30.203,0.797,31,1.781,31h2.797c0.552,2.375,1.486,4.602,2.739,6.613L5.339,39.59
	c-0.695,0.696-0.695,1.823,0,2.518l4.553,4.553c0.695,0.695,1.823,0.695,2.518,0l1.978-1.978c2.011,1.252,4.238,2.187,6.613,2.739
	v2.797C21,51.203,21.797,52,22.781,52h6.439C30.203,52,31,51.203,31,50.219v-2.797c2.375-0.552,4.602-1.486,6.613-2.739l1.978,1.978
	c0.695,0.695,1.823,0.695,2.518,0l4.553-4.553c0.695-0.695,0.695-1.823,0-2.518l-1.978-1.978c1.252-2.01,2.186-4.238,2.739-6.613
	h2.797C51.203,31,52,30.203,52,29.219v-6.439C52,21.797,51.203,21,50.219,21z M26,35c-4.971,0-9-4.03-9-9c0-4.971,4.029-9,9-9
	s9,4.029,9,9C35,30.97,30.971,35,26,35z"/>
  </symbol>

  <symbol id="locked" viewBox="0 0 535.5 535.5">
    <path d="M420.8,178.5h-25.5v-51C395.3,56.1,339.1,0,267.8,0S140.3,56.1,140.3,127.5v51h-25.5c-28.1,0-51,22.9-51,51
			v255c0,28,22.9,51,51,51h306c28,0,51-23,51-51v-255C471.8,201.4,448.8,178.5,420.8,178.5z M267.8,48.5c43.4,0,79,35.7,79,79.1v51
			H191.3v-51h-2.6C188.7,84.2,224.4,48.5,267.8,48.5z M420.8,484.5h-306v-255h306V484.5z M267.8,408c28,0,51-23,51-51s-23-51-51-51
			s-51,23-51,51S239.7,408,267.8,408z"/>
  </symbol>

  <symbol id="download" viewBox="0 0 490.4 490.4">
    <rect x="141.2" width="216" height="24"/>
    <polyline points="357.2,24 357.2,0 141.2,0 "/>
    <rect x="141.2" y="48" width="216" height="32"/>
    <polyline points="357.2,80 357.2,48 141.2,48 "/>
    <polygon points="357.2,208 357.2,96 141.2,96 141.2,208 98.8,208 245.2,354.4 391.6,208 "/>
    <polyline points="245.2,354.4 391.6,208 357.2,208 357.2,96 141.2,96 "/>
    <polygon points="245.2,408 181.2,344 98.8,344 245.2,490.4 391.6,344 309.2,344 "/>
    <polyline points="245.2,488.8 391.6,344 309.2,344 245.2,407.2 "/>
  </symbol>

  <symbol id="attachment" viewBox="0 0 512 512">
    <path d="M149.106 512c-33.076 0-66.153-12.59-91.333-37.771-50.364-50.361-50.364-132.305-.002-182.665L319.842 29.498c39.331-39.331 103.328-39.331 142.66 0 39.331 39.332 39.331 103.327 0 142.657l-222.63 222.626c-28.297 28.301-74.347 28.303-102.65 0-28.3-28.301-28.3-74.349 0-102.649l170.301-170.298c4.686-4.686 12.284-4.686 16.97 0l5.661 5.661c4.686 4.686 4.686 12.284 0 16.971l-170.3 170.297c-15.821 15.821-15.821 41.563.001 57.385 15.821 15.82 41.564 15.82 57.385 0l222.63-222.626c26.851-26.851 26.851-70.541 0-97.394-26.855-26.851-70.544-26.849-97.395 0L80.404 314.196c-37.882 37.882-37.882 99.519 0 137.401 37.884 37.881 99.523 37.882 137.404.001l217.743-217.739c4.686-4.686 12.284-4.686 16.97 0l5.661 5.661c4.686 4.686 4.686 12.284 0 16.971L240.44 474.229C215.26 499.41 182.183 512 149.106 512z"/>
  </symbol>

  <symbol id="do_not_disturb" viewBox="0 0 510 510">
    <path d="M255,0C114.75,0,0,114.75,0,255s114.75,255,255,255s255-114.75,255-255S395.25,0,255,0z M51,255c0-112.2,91.8-204,204-204
	c45.9,0,89.25,15.3,124.95,43.35l-285.6,285.6C66.3,344.25,51,300.9,51,255z M255,459c-45.9,0-89.25-15.3-124.95-43.35
	L415.65,130.05C443.7,165.75,459,209.1,459,255C459,367.2,367.2,459,255,459z"/>
  </symbol>

  <symbol id="clock" viewBox="0 0 41.301 41.301">
    <path d="M20.642,0c5.698,0,10.857,2.317,14.602,6.047c3.73,3.746,6.047,8.905,6.047,14.603
	c0,5.698-2.317,10.857-6.047,14.603c-3.746,3.73-8.904,6.047-14.602,6.047S9.786,38.983,6.056,35.253
	C2.31,31.507,0.008,26.349,0.008,20.65c0-5.698,2.301-10.857,6.047-14.603C9.786,2.317,14.944,0,20.642,0L20.642,0z M31.166,19.523
	c0.619,0,1.111,0.508,1.111,1.127c0,0.619-0.492,1.127-1.111,1.127H20.674h-0.032c-0.413,0-0.778-0.238-0.968-0.571l-0.016-0.016
	l0,0l-0.016-0.032l0,0v-0.016l0,0l-0.016-0.032l0,0l-0.016-0.032l0,0v-0.016l0,0l-0.016-0.032l0,0l-0.016-0.016l0,0v-0.032l0,0
	l-0.016-0.032l0,0v-0.016l0,0l-0.016-0.032l0,0v-0.032l0,0v-0.016v-0.016l-0.016-0.016l0,0v-0.032l0,0v-0.032l0,0V20.73l0,0v-0.016
	l0,0v-0.032l0,0V20.65l0,0V7.206c0-0.619,0.492-1.111,1.111-1.111c0.619,0,1.127,0.492,1.127,1.111v12.317H31.166z M33.657,7.635
	c-3.333-3.333-7.936-5.381-13.015-5.381S10.96,4.301,7.627,7.635C4.31,10.968,2.246,15.571,2.246,20.65
	c0,5.079,2.063,9.682,5.381,13.016c3.333,3.333,7.936,5.381,13.015,5.381s9.682-2.048,13.015-5.381
	c3.333-3.333,5.397-7.936,5.397-13.016C39.054,15.571,36.991,10.968,33.657,7.635L33.657,7.635z"/>
  </symbol>

  <symbol id="drag" viewBox="0 0 448 512">
    <path d="M432 288H16c-8.8 0-16 7.2-16 16v16c0 8.8 7.2 16 16 16h416c8.8 0 16-7.2 16-16v-16c0-8.8-7.2-16-16-16zm0-112H16c-8.8 0-16 7.2-16 16v16c0 8.8 7.2 16 16 16h416c8.8 0 16-7.2 16-16v-16c0-8.8-7.2-16-16-16z"/>
  </symbol>

  <symbol id="excel" viewBox="0 0 384 512">
    <path d="M369.9 97.9L286 14C277 5 264.8-.1 252.1-.1H48C21.5 0 0 21.5 0 48v416c0 26.5 21.5 48 48 48h288c26.5 0 48-21.5 48-48V131.9c0-12.7-5.1-25-14.1-34zM332.1 128H256V51.9l76.1 76.1zM48 464V48h160v104c0 13.3 10.7 24 24 24h104v288H48zm212-240h-28.8c-4.4 0-8.4 2.4-10.5 6.3-18 33.1-22.2 42.4-28.6 57.7-13.9-29.1-6.9-17.3-28.6-57.7-2.1-3.9-6.2-6.3-10.6-6.3H124c-9.3 0-15 10-10.4 18l46.3 78-46.3 78c-4.7 8 1.1 18 10.4 18h28.9c4.4 0 8.4-2.4 10.5-6.3 21.7-40 23-45 28.6-57.7 14.9 30.2 5.9 15.9 28.6 57.7 2.1 3.9 6.2 6.3 10.6 6.3H260c9.3 0 15-10 10.4-18L224 320c.7-1.1 30.3-50.5 46.3-78 4.7-8-1.1-18-10.3-18z"/>
  </symbol>

  <symbol id="drag_down" viewBox="0 0 448 512">
    <path d="M441.9 89.7L232.5 299.1c-4.7 4.7-12.3 4.7-17 0L6.1 89.7c-4.7-4.7-4.7-12.3 0-17l19.8-19.8c4.7-4.7 12.3-4.7 17 0L224 233.6 405.1 52.9c4.7-4.7 12.3-4.7 17 0l19.8 19.8c4.7 4.7 4.7 12.3 0 17zm0 143l-19.8-19.8c-4.7-4.7-12.3-4.7-17 0L224 393.6 42.9 212.9c-4.7-4.7-12.3-4.7-17 0L6.1 232.7c-4.7 4.7-4.7 12.3 0 17l209.4 209.4c4.7 4.7 12.3 4.7 17 0l209.4-209.4c4.7-4.7 4.7-12.3 0-17z"/>
  </symbol>

  <symbol id="pdf" viewBox="0 0 384 512">
    <path d="M369.9 97.9L286 14C277 5 264.8-.1 252.1-.1H48C21.5 0 0 21.5 0 48v416c0 26.5 21.5 48 48 48h288c26.5 0 48-21.5 48-48V131.9c0-12.7-5.1-25-14.1-34zM332.1 128H256V51.9l76.1 76.1zM48 464V48h160v104c0 13.3 10.7 24 24 24h104v288H48zm250.2-143.7c-12.2-12-47-8.7-64.4-6.5-17.2-10.5-28.7-25-36.8-46.3 3.9-16.1 10.1-40.6 5.4-56-4.2-26.2-37.8-23.6-42.6-5.9-4.4 16.1-.4 38.5 7 67.1-10 23.9-24.9 56-35.4 74.4-20 10.3-47 26.2-51 46.2-3.3 15.8 26 55.2 76.1-31.2 22.4-7.4 46.8-16.5 68.4-20.1 18.9 10.2 41 17 55.8 17 25.5 0 28-28.2 17.5-38.7zm-198.1 77.8c5.1-13.7 24.5-29.5 30.4-35-19 30.3-30.4 35.7-30.4 35zm81.6-190.6c7.4 0 6.7 32.1 1.8 40.8-4.4-13.9-4.3-40.8-1.8-40.8zm-24.4 136.6c9.7-16.9 18-37 24.7-54.7 8.3 15.1 18.9 27.2 30.1 35.5-20.8 4.3-38.9 13.1-54.8 19.2zm131.6-5s-5 6-37.3-7.8c35.1-2.6 40.9 5.4 37.3 7.8z" />
  </symbol>

  <symbol id="closingdate" viewBox="0 0 448 512">
    <path d="M224 420c-11 0-20-9-20-20v-64c0-11 9-20 20-20s20 9 20 20v64c0 11-9 20-20 20zm224-148v192c0 26.5-21.5 48-48 48H48c-26.5 0-48-21.5-48-48V272c0-26.5 21.5-48 48-48h16v-64C64 71.6 136-.3 224.5 0 312.9.3 384 73.1 384 161.5V224h16c26.5 0 48 21.5 48 48zM96 224h256v-64c0-70.6-57.4-128-128-128S96 89.4 96 160v64zm320 240V272c0-8.8-7.2-16-16-16H48c-8.8 0-16 7.2-16 16v192c0 8.8 7.2 16 16 16h352c8.8 0 16-7.2 16-16z" />
  </symbol>
  <symbol id="deadline" viewBox="0 0 512 512">
    <path d="M256 8C119 8 8 119 8 256s111 248 248 248 248-111 248-248S393 8 256 8zm216 248c0 118.7-96.1 216-216 216-118.7 0-216-96.1-216-216 0-118.7 96.1-216 216-216 118.7 0 216 96.1 216 216zm-148.9 88.3l-81.2-59c-3.1-2.3-4.9-5.9-4.9-9.7V116c0-6.6 5.4-12 12-12h14c6.6 0 12 5.4 12 12v146.3l70.5 51.3c5.4 3.9 6.5 11.4 2.6 16.8l-8.2 11.3c-3.9 5.3-11.4 6.5-16.8 2.6z"/>
  </symbol>

  <symbol id="kebab_hor" viewBox="0 0 512 512">
    <path d="M304 256c0 26.5-21.5 48-48 48s-48-21.5-48-48 21.5-48 48-48 48 21.5 48 48zm120-48c-26.5 0-48 21.5-48 48s21.5 48 48 48 48-21.5 48-48-21.5-48-48-48zm-336 0c-26.5 0-48 21.5-48 48s21.5 48 48 48 48-21.5 48-48-21.5-48-48-48z" />
  </symbol>
  <symbol id="round_add" viewBox="0 0 448 512">
    <path d="M416 208H272V64c0-17.67-14.33-32-32-32h-32c-17.67 0-32 14.33-32 32v144H32c-17.67 0-32 14.33-32 32v32c0 17.67 14.33 32 32 32h144v144c0 17.67 14.33 32 32 32h32c17.67 0 32-14.33 32-32V304h144c17.67 0 32-14.33 32-32v-32c0-17.67-14.33-32-32-32z" />
  </symbol>
  <symbol id="round_discard" viewBox="0 0 352 512">
    <path d="M242.72 256l100.07-100.07c12.28-12.28 12.28-32.19 0-44.48l-22.24-22.24c-12.28-12.28-32.19-12.28-44.48 0L176 189.28 75.93 89.21c-12.28-12.28-32.19-12.28-44.48 0L9.21 111.45c-12.28 12.28-12.28 32.19 0 44.48L109.28 256 9.21 356.07c-12.28 12.28-12.28 32.19 0 44.48l22.24 22.24c12.28 12.28 32.2 12.28 44.48 0L176 322.72l100.07 100.07c12.28 12.28 32.2 12.28 44.48 0l22.24-22.24c12.28-12.28 12.28-32.19 0-44.48L242.72 256z" />
  </symbol>
  <symbol id="email" viewBox="0 0 512 512">
    <path d="M464,64h-16L256,215.616L64,64H48C21.504,64,0,85.504,0,112v288c0,26.496,21.504,48,48,48h16V148.672
			l192,147.68L448,148.64V448h16c26.496,0,48-21.504,48-48V112C512,85.504,490.496,64,464,64z"/>
  </symbol>

  <symbol id="info" viewBox="0 0 512 512">
    <path d="M256 8C119.043 8 8 119.083 8 256c0 136.997 111.043 248 248 248s248-111.003 248-248C504 119.083 392.957 8 256 8zm0 110c23.196 0 42 18.804 42 42s-18.804 42-42 42-42-18.804-42-42 18.804-42 42-42zm56 254c0 6.627-5.373 12-12 12h-88c-6.627 0-12-5.373-12-12v-24c0-6.627 5.373-12 12-12h12v-64h-12c-6.627 0-12-5.373-12-12v-24c0-6.627 5.373-12 12-12h64c6.627 0 12 5.373 12 12v100h12c6.627 0 12 5.373 12 12v24z" />
  </symbol>

  <symbol id="rotateR" viewBox="0 0 512 512">
    <path d="M500 8h-27.711c-6.739 0-12.157 5.548-11.997 12.286l2.347 98.568C418.075 51.834 341.788 7.73 255.207 8.001 118.82 8.428 7.787 120.009 8 256.396 8.214 393.181 119.165 504 256 504c63.926 0 122.202-24.187 166.178-63.908 5.113-4.618 5.354-12.561.482-17.433l-19.738-19.738c-4.498-4.498-11.753-4.785-16.501-.552C351.787 433.246 306.105 452 256 452c-108.322 0-196-87.662-196-196 0-108.322 87.662-196 196-196 79.545 0 147.941 47.282 178.675 115.302l-126.389-3.009c-6.737-.16-12.286 5.257-12.286 11.997V212c0 6.627 5.373 12 12 12h192c6.627 0 12-5.373 12-12V20c0-6.627-5.373-12-12-12z"/>
  </symbol>
  <symbol id="rotateL" viewBox="0 0 512 512">
    <path d="M12 8h27.711c6.739 0 12.157 5.548 11.997 12.286l-2.347 98.568C93.925 51.834 170.212 7.73 256.793 8.001 393.18 8.428 504.213 120.009 504 256.396 503.786 393.181 392.835 504 256 504c-63.926 0-122.202-24.187-166.178-63.908-5.113-4.618-5.354-12.561-.482-17.433l19.738-19.738c4.498-4.498 11.753-4.785 16.501-.552C160.213 433.246 205.895 452 256 452c108.322 0 196-87.662 196-196 0-108.322-87.662-196-196-196-79.545 0-147.941 47.282-178.675 115.302l126.389-3.009c6.737-.16 12.286 5.257 12.286 11.997V212c0 6.627-5.373 12-12 12H12c-6.627 0-12-5.373-12-12V20C0 13.373 5.373 8 12 8z"/>
  </symbol>
  <symbol id="star" viewBox="0 0 24 24">
    <path d="M12 17.27L18.18 21l-1.64-7.03L22 9.24l-7.19-.61L12 2 9.19 8.63 2 9.24l5.46 4.73L5.82 21z"/>
  </symbol>
  <symbol id="star-outlined" viewBox="0 0 24 24">
    <path d="M22 9.24l-7.19-.62L12 2 9.19 8.63 2 9.24l5.46 4.73L5.82 21 12 17.27 18.18 21l-1.63-7.03L22 9.24zM12 15.4l-3.76 2.27 1-4.28-3.32-2.88 4.38-.38L12 6.1l1.71 4.04 4.38.38-3.32 2.88 1 4.28L12 15.4z"/>
  </symbol>
</svg>
